<svg data-v-423bf9ae="" xmlns="http://www.w3.org/2000/svg" viewBox="0 0 613 99" class="iconLeftSlogan"><!----><!----><!----><g data-v-423bf9ae="" id="ee0e8dae-3c3b-492b-b0a3-0d3221889fee" fill="#2E2B3C" transform="matrix(5.513280868530273,0,0,5.513280868530273,103.49375915527344,-16.97056770324707)"><path d="M1.11 13.78L2.28 13.78L2.28 9.42L6.12 9.42L6.12 13.78L7.29 13.78L7.29 4.54L6.12 4.54L6.12 8.41L2.28 8.41L2.28 4.54L1.11 4.54ZM12.60 13.96C14.39 13.96 15.96 12.59 15.96 10.22C15.96 7.83 14.39 6.47 12.60 6.47C10.81 6.47 9.24 7.83 9.24 10.22C9.24 12.59 10.81 13.96 12.60 13.96ZM12.60 13.01C11.30 13.01 10.43 11.89 10.43 10.22C10.43 8.55 11.30 7.42 12.60 7.42C13.90 7.42 14.77 8.55 14.77 10.22C14.77 11.89 13.90 13.01 12.60 13.01ZM22.48 13.96C23.23 13.96 23.70 13.76 24.32 13.52L24.02 12.66C23.52 12.89 23.13 13.01 22.74 13.01C21.92 13.01 21.41 12.54 21.41 11.49L21.41 3.60L17.93 3.60L17.93 4.54L20.26 4.54L20.26 11.41C20.26 13.09 21.04 13.96 22.48 13.96ZM29.68 5.04C30.23 5.04 30.66 4.65 30.66 4.07C30.66 3.49 30.23 3.08 29.68 3.08C29.13 3.08 28.70 3.49 28.70 4.07C28.70 4.65 29.13 5.04 29.68 5.04ZM26.60 13.78L33.04 13.78L33.04 12.82L30.39 12.82L30.39 6.64L26.60 6.64L26.60 7.57L29.25 7.57L29.25 12.82L26.60 12.82ZM34.66 13.78L35.71 13.78L35.71 8.55C35.71 7.80 35.62 6.47 35.56 5.73L35.60 5.73L36.27 7.70L37.76 11.27L38.40 11.27L39.87 7.70L40.52 5.73L40.57 5.73C40.52 6.47 40.43 7.80 40.43 8.55L40.43 13.78L41.50 13.78L41.50 4.54L40.12 4.54L38.63 8.47L38.12 9.97L38.07 9.97L37.53 8.47L36.04 4.54L34.66 4.54ZM46.76 13.96C48.55 13.96 50.12 12.59 50.12 10.22C50.12 7.83 48.55 6.47 46.76 6.47C44.97 6.47 43.40 7.83 43.40 10.22C43.40 12.59 44.97 13.96 46.76 13.96ZM46.76 13.01C45.46 13.01 44.59 11.89 44.59 10.22C44.59 8.55 45.46 7.42 46.76 7.42C48.06 7.42 48.93 8.55 48.93 10.22C48.93 11.89 48.06 13.01 46.76 13.01ZM52.84 13.78L58.53 13.78L58.53 12.78L53.98 12.78L53.98 4.54L52.84 4.54ZM63.84 5.04C64.39 5.04 64.82 4.65 64.82 4.07C64.82 3.49 64.39 3.08 63.84 3.08C63.29 3.08 62.86 3.49 62.86 4.07C62.86 4.65 63.29 5.04 63.84 5.04ZM60.76 13.78L67.20 13.78L67.20 12.82L64.55 12.82L64.55 6.64L60.76 6.64L60.76 7.57L63.41 7.57L63.41 12.82L60.76 12.82ZM69.16 13.78L70.32 13.78L70.32 9.87L71.96 9.87L74.17 13.78L75.50 13.78L73.16 9.74C74.41 9.42 75.22 8.57 75.22 7.13C75.22 5.21 73.88 4.54 72.02 4.54L69.16 4.54ZM70.32 8.92L70.32 5.47L71.85 5.47C73.28 5.47 74.06 5.91 74.06 7.13C74.06 8.33 73.28 8.92 71.85 8.92ZM80.78 13.96C81.87 13.96 82.73 13.57 83.40 13.12L82.99 12.35C82.36 12.77 81.72 13.02 80.92 13.02C79.44 13.02 78.37 12.03 78.32 10.49L83.64 10.49C83.66 10.30 83.68 10.05 83.68 9.81C83.68 7.80 82.53 6.47 80.58 6.47C78.82 6.47 77.13 7.90 77.13 10.22C77.13 12.56 78.76 13.96 80.78 13.96ZM78.30 9.65C78.48 8.22 79.49 7.38 80.60 7.38C81.86 7.38 82.61 8.19 82.61 9.65ZM88.14 13.78L89.43 13.78L92.25 6.64L91.14 6.64L89.57 10.74C89.29 11.45 89.07 12.17 88.83 12.82L88.77 12.82C88.54 12.17 88.28 11.45 88.00 10.74L86.44 6.64L85.27 6.64Z"></path></g><defs data-v-423bf9ae=""><linearGradient data-v-423bf9ae="" gradientTransform="rotate(25)" id="cf362812-d9aa-4c9b-8c1e-8749dde7ed8c" x1="0%" y1="0%" x2="100%" y2="0%"><stop data-v-423bf9ae="" offset="0%" style="stop-color: rgb(101, 102, 206); stop-opacity: 1;"></stop><stop data-v-423bf9ae="" offset="100%" style="stop-color: rgb(219, 193, 208); stop-opacity: 1;"></stop></linearGradient></defs><g data-v-423bf9ae="" id="949a8c1a-f328-46b6-b1b2-19a6792bb83a" transform="matrix(1.0444444417953491,0,0,1.0444444417953491,-4.009548664093018,-0.11111098527908325)" stroke="none" fill="url(#cf362812-d9aa-4c9b-8c1e-8749dde7ed8c)"><path d="M66.2 56.3v38.2h24.2V56.3H66.2zM84.9 89H71.7V61.8h13.2V89z"></path><path d="M79.5 50.2V.5H4.6V88h53.9V50.2h21zM74 44.7H58.6V26.3H74v18.4zM30.3 6H74v14.8H30.3V6zM10.1 6h14.7v54.7H10.1V6zm43 76.5h-43v-14h43v14zm0-19.4H30.3V26.3h22.8v36.8z"></path></g><!----><g data-v-423bf9ae="" id="d8d9d2ea-e721-4143-95d1-de79a4cf7ebd" fill="#2E2B3C" transform="matrix(0.6887809038162231,0,0,0.6887809038162231,109.25223541259766,58.00361251831055)"><path d="M0.52 12.39C0.52 12.63 0.52 12.68 0.71 12.68C1.04 12.68 1.97 12.64 2.39 12.64C2.81 12.64 3.64 12.68 3.96 12.68C4.13 12.68 4.13 12.61 4.13 12.40C4.13 12.24 4.13 12.18 3.96 12.18L3.04 12.18C2.95 12.18 2.91 9.93 2.91 8.20C2.91 8.01 2.91 8.01 3.04 8.01L8.27 8.01C8.34 8.01 8.36 8.01 8.36 8.18L8.36 9.91C8.36 11.05 8.34 12.18 8.29 12.18L7.52 12.18C7.29 12.18 7.25 12.19 7.25 12.39C7.25 12.63 7.27 12.68 7.46 12.68C7.78 12.68 8.62 12.64 9.04 12.64C9.46 12.64 10.05 12.68 10.37 12.68C10.54 12.68 10.56 12.61 10.56 12.40C10.56 12.24 10.54 12.18 10.37 12.18L9.63 12.18C9.59 12.18 9.58 9.27 9.58 7.04C9.58 5.40 9.58 3.70 9.62 3.70L10.23 3.70C10.46 3.70 10.50 3.68 10.50 3.49C10.50 3.25 10.49 3.19 10.29 3.19C10.15 3.19 9.52 3.23 8.93 3.23C8.26 3.23 7.66 3.19 7.43 3.19C7.24 3.19 7.21 3.22 7.21 3.44C7.21 3.67 7.28 3.70 7.45 3.70L8.25 3.70C8.30 3.70 8.36 4.79 8.36 5.71L8.36 7.42C8.36 7.59 8.36 7.59 8.19 7.59L3.08 7.59C2.91 7.59 2.91 7.59 2.91 7.38C2.91 6.96 2.90 6.23 2.90 5.53C2.90 4.66 2.91 3.70 2.97 3.70L3.74 3.70C3.96 3.70 4.00 3.68 4.00 3.49C4.00 3.25 3.99 3.19 3.79 3.19C3.47 3.19 2.88 3.23 2.28 3.23C1.69 3.23 1.20 3.19 0.98 3.19C0.80 3.19 0.70 3.21 0.70 3.44C0.70 3.68 0.81 3.70 0.98 3.70L1.60 3.70C1.65 3.70 1.67 5.59 1.67 7.18L1.67 8.61C1.67 10.08 1.65 12.18 1.58 12.18L0.77 12.18C0.55 12.18 0.52 12.19 0.52 12.39ZM18.66 8.15C18.66 11.17 21 12.80 23.25 12.80C26.04 12.80 28.01 10.89 28.01 8.06C28.01 5.33 26.26 3.11 23.46 3.11C20.86 3.11 18.66 5.10 18.66 8.15ZM20.06 7.77C20.06 5.64 21.35 3.58 23.32 3.58C25.56 3.58 26.64 5.81 26.64 7.94C26.64 10.08 25.54 12.32 23.27 12.32C21.28 12.32 20.06 10.28 20.06 7.77ZM36.12 12.39C36.12 12.63 36.15 12.68 36.34 12.68C36.67 12.68 37.63 12.64 38.05 12.64C38.47 12.64 42.83 12.68 43.15 12.68C43.41 12.68 43.48 12.66 43.50 12.49C43.55 12.08 43.79 10.72 43.79 10.60C43.79 10.47 43.64 10.44 43.47 10.43C43.37 10.42 43.29 10.46 43.27 10.56L43.11 11.76C43.06 12.05 43.05 12.03 42.83 12.04C42.67 12.05 40.17 12.12 38.74 12.12C38.70 12.12 38.65 11.38 38.65 10.54L38.65 6.66C38.65 5.40 38.67 3.70 38.77 3.70L39.75 3.70C39.98 3.70 40.01 3.63 40.01 3.44C40.01 3.23 40.00 3.19 39.76 3.19C39.44 3.19 38.50 3.23 38.08 3.23C37.66 3.23 36.72 3.19 36.50 3.19C36.27 3.19 36.22 3.22 36.22 3.44C36.22 3.65 36.26 3.70 36.46 3.70L37.28 3.70C37.32 3.70 37.35 4.23 37.35 4.90L37.35 8.13C37.35 10.07 37.32 12.18 37.24 12.18L36.40 12.18C36.18 12.18 36.12 12.21 36.12 12.39ZM51.27 12.39C51.27 12.63 51.31 12.68 51.51 12.68C51.83 12.68 52.58 12.64 53.30 12.64C53.96 12.64 54.75 12.68 54.98 12.68C55.15 12.68 55.17 12.61 55.17 12.40C55.17 12.24 55.15 12.18 54.98 12.18L54.01 12.18C53.91 12.18 53.89 9.55 53.89 7.76L53.89 5.87C53.89 5.14 53.91 3.70 54.01 3.70L54.92 3.70C55.15 3.70 55.17 3.68 55.17 3.49C55.17 3.25 55.15 3.19 54.98 3.19C54.66 3.19 53.98 3.23 53.33 3.23C52.51 3.23 51.80 3.19 51.58 3.19C51.39 3.19 51.32 3.21 51.32 3.44C51.32 3.68 51.41 3.70 51.58 3.70L52.50 3.70C52.54 3.70 52.61 4.79 52.61 5.71L52.61 7.08C52.61 8.92 52.60 12.18 52.49 12.18L51.56 12.18C51.34 12.18 51.27 12.19 51.27 12.39ZM63.28 5.77C63.28 9.07 68.26 8.20 68.26 10.65C68.26 11.59 67.42 12.31 66.44 12.31C65.62 12.31 64.02 11.83 63.99 11.47L63.91 10.15C63.90 9.97 63.83 9.91 63.64 9.91L63.57 9.91C63.36 9.91 63.36 10.00 63.36 10.12C63.36 10.32 63.48 11.66 63.50 12.17C63.52 12.38 64.78 12.85 66.32 12.85C67.89 12.85 69.50 11.87 69.50 10.11C69.50 6.79 64.53 7.87 64.53 5.32C64.53 4.31 65.31 3.56 66.35 3.56C67.37 3.56 68.46 4.58 68.46 4.89C68.46 5.01 68.42 5.73 68.42 5.78C68.42 5.92 68.46 5.99 68.73 5.99C68.96 5.99 68.98 5.94 68.98 5.75C68.98 5.04 69.06 3.68 69.06 3.53C69.06 3.30 69.02 3.29 68.75 3.29C68.53 3.29 68.52 3.32 68.50 3.53C68.50 3.61 68.49 3.78 68.45 3.78C68.39 3.78 68.31 3.74 68.24 3.68C67.44 3.14 66.82 3.08 66.32 3.08C64.79 3.08 63.28 4.17 63.28 5.77ZM77.06 5.01C77.06 5.17 77.24 5.17 77.36 5.17C77.52 5.17 77.56 5.15 77.57 4.97L77.69 3.89C77.70 3.81 78.25 3.75 79.00 3.75L80.99 3.75C81.05 3.75 81.07 4.35 81.07 4.97C81.07 6.43 81.02 12.18 80.89 12.18L80.02 12.18C79.80 12.18 79.76 12.19 79.76 12.39C79.76 12.63 79.77 12.68 79.97 12.68C80.29 12.68 81.27 12.64 81.69 12.64C82.11 12.64 83.05 12.68 83.37 12.68C83.54 12.68 83.57 12.61 83.57 12.40C83.57 12.24 83.54 12.18 83.37 12.18L82.38 12.18C82.35 12.18 82.35 11.76 82.35 11.31C82.35 9.56 82.43 5.96 82.43 5.92C82.45 5.18 82.45 3.75 82.54 3.75L84.15 3.75C84.87 3.75 85.69 3.78 85.69 3.85C85.69 3.99 85.65 4.90 85.65 4.97C85.65 5.12 85.72 5.17 85.90 5.17C86.10 5.17 86.17 5.17 86.17 5.03C86.17 3.93 86.23 3.40 86.23 3.14C86.23 2.94 86.14 2.94 85.95 2.94C85.79 2.94 85.74 2.98 85.72 3.16C85.72 3.23 85.08 3.28 84.24 3.28L79.24 3.28C78.58 3.28 77.77 3.28 77.77 3.21L77.77 3.07C77.77 2.94 77.64 2.94 77.55 2.94C77.32 2.94 77.29 3.00 77.28 3.19C77.22 3.89 77.06 4.97 77.06 5.01ZM93.84 12.39C93.84 12.63 93.88 12.68 94.08 12.68C94.40 12.68 95.16 12.64 95.87 12.64C96.53 12.64 97.33 12.68 97.55 12.68C97.72 12.68 97.75 12.61 97.75 12.40C97.75 12.24 97.72 12.18 97.55 12.18L96.59 12.18C96.49 12.18 96.46 9.55 96.46 7.76L96.46 5.87C96.46 5.14 96.49 3.70 96.59 3.70L97.50 3.70C97.72 3.70 97.75 3.68 97.75 3.49C97.75 3.25 97.72 3.19 97.55 3.19C97.23 3.19 96.56 3.23 95.90 3.23C95.09 3.23 94.37 3.19 94.15 3.19C93.97 3.19 93.90 3.21 93.90 3.44C93.90 3.68 93.98 3.70 94.15 3.70L95.07 3.70C95.12 3.70 95.19 4.79 95.19 5.71L95.19 7.08C95.19 8.92 95.17 12.18 95.06 12.18L94.14 12.18C93.91 12.18 93.84 12.19 93.84 12.39ZM105.71 7.91C105.71 11.31 108.08 12.87 110.67 12.87C112.45 12.87 114.23 11.90 114.27 11.59C114.44 10.29 114.49 9.70 114.49 9.66C114.49 9.56 114.45 9.52 114.28 9.51C114.23 9.51 114.17 9.49 114.13 9.49C114.02 9.49 113.96 9.53 113.93 9.70L113.75 11.33C113.74 11.45 112.63 12.24 111.06 12.24C108.93 12.24 107.23 10.29 107.23 7.94C107.23 5.42 108.65 3.54 110.66 3.54C112.50 3.54 113.85 5.01 113.85 5.17C113.85 5.29 113.79 6.40 113.79 6.45C113.79 6.59 113.83 6.64 114.10 6.64C114.30 6.64 114.37 6.62 114.37 6.44C114.37 5.73 114.42 3.92 114.42 3.67C114.42 3.47 114.31 3.44 114.10 3.44C113.88 3.44 113.85 3.50 113.85 3.67L113.85 4.05C113.85 4.16 113.81 4.16 113.68 4.06C113.40 3.86 112.42 3.04 110.75 3.04C107.91 3.04 105.71 4.96 105.71 7.91ZM132.61 12.39C132.61 12.63 132.64 12.68 132.83 12.68C133.07 12.68 133.57 12.64 133.99 12.64C134.41 12.64 134.90 12.68 135.23 12.68C135.39 12.68 135.42 12.61 135.42 12.40C135.42 12.24 135.39 12.18 135.23 12.18L134.26 12.18C134.20 12.18 134.19 11.54 134.19 10.79C134.19 8.96 134.23 6.13 134.30 4.28C134.33 3.88 134.36 3.91 134.50 4.27L137.76 12.32C137.86 12.54 137.93 12.74 138.04 12.74C138.14 12.74 138.21 12.63 138.29 12.45C138.63 11.79 138.81 11.75 139.08 11.09L141.67 4.47C141.79 4.16 141.83 4.02 141.85 4.47C141.88 5.66 141.92 8.47 141.92 9.74C141.92 10.99 141.88 12.18 141.82 12.18L141.19 12.18C140.97 12.18 140.90 12.19 140.90 12.39C140.90 12.63 140.92 12.68 141.12 12.68C141.32 12.68 142.02 12.64 142.62 12.64C143.04 12.64 143.79 12.68 144.12 12.68C144.28 12.68 144.31 12.61 144.31 12.40C144.31 12.22 144.26 12.18 144.09 12.18L143.36 12.18C143.25 12.18 143.15 8.44 143.15 6.03L143.15 4.77C143.15 4.17 143.18 3.77 143.22 3.70L143.88 3.70C144.10 3.70 144.14 3.68 144.14 3.49C144.14 3.25 144.13 3.19 143.93 3.19C143.61 3.19 142.93 3.23 142.51 3.23L141.83 3.23C141.61 3.23 141.58 3.29 141.47 3.58L138.73 10.72C138.64 10.95 138.61 11.02 138.50 10.74L135.56 3.40C135.49 3.22 135.44 3.19 135.30 3.19C135.21 3.19 134.72 3.23 134.41 3.23C133.91 3.23 133.06 3.19 132.86 3.19C132.72 3.19 132.72 3.26 132.72 3.47C132.72 3.64 132.72 3.70 132.86 3.70L133.56 3.70C133.83 3.70 133.83 3.72 133.83 3.84C133.83 4.82 133.62 9.94 133.57 10.79C133.53 11.55 133.53 12.18 133.48 12.18L132.90 12.18C132.68 12.18 132.61 12.19 132.61 12.39ZM152.28 8.15C152.28 11.17 154.62 12.80 156.87 12.80C159.66 12.80 161.63 10.89 161.63 8.06C161.63 5.33 159.88 3.11 157.08 3.11C154.48 3.11 152.28 5.10 152.28 8.15ZM153.68 7.77C153.68 5.64 154.97 3.58 156.94 3.58C159.18 3.58 160.26 5.81 160.26 7.94C160.26 10.08 159.15 12.32 156.88 12.32C154.90 12.32 153.68 10.28 153.68 7.77ZM169.67 12.46C169.67 12.63 169.68 12.70 169.86 12.70C170.02 12.70 171.25 12.64 171.64 12.64C172.49 12.64 173.38 12.70 174.23 12.70C176.85 12.70 179.24 11.07 179.24 7.91C179.24 4.89 176.90 3.07 173.87 3.07C173.31 3.07 172.05 3.23 171.01 3.23C170.53 3.23 170.07 3.22 170.02 3.22C169.83 3.22 169.82 3.32 169.82 3.49C169.82 3.68 169.89 3.70 170.02 3.70L170.98 3.67C171.01 3.67 171.01 4.20 171.01 4.72C171.01 5.91 170.93 12.21 170.84 12.21L169.95 12.21C169.76 12.21 169.67 12.22 169.67 12.46ZM172.24 11.40C172.24 9.46 172.24 7.52 172.26 5.60C172.26 5.03 172.30 3.61 172.34 3.60C172.63 3.53 173.22 3.51 173.57 3.51C176.13 3.51 177.74 5.75 177.74 7.73C177.74 8.95 177.70 12.25 173.03 12.25C172.76 12.25 172.35 12.25 172.26 12.21C172.24 12.19 172.24 11.79 172.24 11.40ZM187.21 12.39C187.21 12.63 187.25 12.68 187.45 12.68C187.77 12.68 188.52 12.64 189.24 12.64C189.90 12.64 190.69 12.68 190.92 12.68C191.09 12.68 191.11 12.61 191.11 12.40C191.11 12.24 191.09 12.18 190.92 12.18L189.95 12.18C189.85 12.18 189.83 9.55 189.83 7.76L189.83 5.87C189.83 5.14 189.85 3.70 189.95 3.70L190.86 3.70C191.09 3.70 191.11 3.68 191.11 3.49C191.11 3.25 191.09 3.19 190.92 3.19C190.60 3.19 189.92 3.23 189.27 3.23C188.45 3.23 187.74 3.19 187.52 3.19C187.33 3.19 187.26 3.21 187.26 3.44C187.26 3.68 187.35 3.70 187.52 3.70L188.44 3.70C188.48 3.70 188.55 4.79 188.55 5.71L188.55 7.08C188.55 8.92 188.54 12.18 188.43 12.18L187.50 12.18C187.28 12.18 187.21 12.19 187.21 12.39ZM199.01 3.49C199.01 3.72 199.12 3.74 199.29 3.74L199.91 3.74C199.96 3.74 200.03 4.79 200.03 5.71C200.03 5.80 200.09 8.27 200.09 9.83L200.09 11.17C200.09 11.84 200.07 12.18 200.02 12.18L199.43 12.18C199.21 12.18 199.14 12.19 199.14 12.39C199.14 12.63 199.15 12.68 199.35 12.68C199.56 12.68 200.40 12.64 200.82 12.64C201.24 12.64 202.17 12.68 202.50 12.68C202.66 12.68 202.69 12.61 202.69 12.40C202.69 12.24 202.66 12.18 202.50 12.18L201.36 12.18C201.31 12.18 201.32 10.16 201.28 8.33C201.28 8.08 201.26 8.09 201.46 8.09L203.88 8.09C204.58 8.09 204.61 8.19 204.61 8.30L204.61 9.16C204.61 9.28 204.79 9.28 204.90 9.28C205.00 9.28 205.13 9.28 205.13 9.17C205.13 8.99 205.10 8.33 205.10 7.83C205.10 7.32 205.13 6.82 205.13 6.69C205.13 6.58 205.02 6.58 204.89 6.58C204.72 6.58 204.61 6.58 204.61 6.71L204.61 7.45C204.61 7.62 204.16 7.63 203.88 7.63L201.46 7.63C201.25 7.63 201.28 7.66 201.28 7.45C201.26 7.13 201.25 6.15 201.25 5.26C201.25 4.52 201.26 3.71 201.33 3.71C202.73 3.71 204.92 3.75 205.21 3.79C205.21 3.96 205.17 4.82 205.17 4.89C205.17 5.04 205.24 5.10 205.42 5.10C205.62 5.10 205.69 5.08 205.69 4.94C205.69 3.85 205.74 3.36 205.74 3.09C205.74 2.93 205.66 2.90 205.46 2.90C205.34 2.90 205.27 2.90 205.24 3.11C205.23 3.25 205.30 3.25 204.34 3.25C203.74 3.25 201.46 3.29 200.72 3.29C200.23 3.29 199.29 3.25 199.19 3.25C199.07 3.25 199.01 3.30 199.01 3.49ZM213.57 12.39C213.57 12.63 213.61 12.68 213.81 12.68C214.13 12.68 214.89 12.64 215.60 12.64C216.26 12.64 217.06 12.68 217.28 12.68C217.45 12.68 217.48 12.61 217.48 12.40C217.48 12.24 217.45 12.18 217.28 12.18L216.31 12.18C216.22 12.18 216.19 9.55 216.19 7.76L216.19 5.87C216.19 5.14 216.22 3.70 216.31 3.70L217.22 3.70C217.45 3.70 217.48 3.68 217.48 3.49C217.48 3.25 217.45 3.19 217.28 3.19C216.96 3.19 216.29 3.23 215.63 3.23C214.82 3.23 214.10 3.19 213.88 3.19C213.70 3.19 213.63 3.21 213.63 3.44C213.63 3.68 213.71 3.70 213.88 3.70L214.80 3.70C214.84 3.70 214.91 4.79 214.91 5.71L214.91 7.08C214.91 8.92 214.90 12.18 214.79 12.18L213.86 12.18C213.64 12.18 213.57 12.19 213.57 12.39ZM225.23 12.39C225.23 12.63 225.23 12.68 225.43 12.68C225.60 12.68 225.92 12.64 226.49 12.64C227.11 12.64 227.65 12.68 227.81 12.68C227.98 12.68 227.98 12.61 227.98 12.40C227.98 12.24 227.98 12.18 227.81 12.18L226.73 12.18C226.73 12.18 226.72 12.18 226.72 12.17C226.73 11.87 227.50 9.90 227.85 9.02C227.92 8.83 227.93 8.79 228.14 8.79L230.97 8.79C231.11 8.79 231.11 8.81 231.18 9.03C231.45 9.77 232.16 11.89 232.16 12.17C232.16 12.18 232.15 12.18 232.15 12.18L231.38 12.18C231.15 12.18 231.14 12.19 231.14 12.39C231.14 12.63 231.15 12.68 231.32 12.68C231.64 12.68 232.51 12.64 232.93 12.64C233.35 12.64 234.02 12.68 234.23 12.68C234.37 12.68 234.39 12.61 234.39 12.40C234.39 12.24 234.37 12.18 234.23 12.18L233.74 12.18C233.65 12.18 232.62 9.34 232.06 7.78L230.38 3.07C230.37 3.00 230.30 2.94 230.22 2.94C230.09 2.94 229.99 3.16 229.91 3.35C229.75 3.71 229.52 3.84 229.40 4.13L227.92 7.57C227.74 8.01 226.03 12.18 225.90 12.18L225.48 12.18C225.26 12.18 225.23 12.19 225.23 12.39ZM228.13 8.33C228.13 8.30 228.16 8.23 228.20 8.13L229.57 4.77C229.61 4.66 229.64 4.61 229.67 4.61C229.68 4.61 229.70 4.63 229.74 4.77L230.90 8.18C230.93 8.25 230.94 8.29 230.94 8.32C230.94 8.36 230.92 8.37 230.82 8.37L228.31 8.37C228.13 8.37 228.13 8.34 228.13 8.33ZM242.14 3.51C242.14 3.75 242.23 3.79 242.40 3.79L243.25 3.77C243.31 3.77 243.36 5.52 243.36 7.11L243.36 11.63C243.36 11.93 243.35 12.18 243.32 12.18L242.59 12.18C242.37 12.18 242.30 12.19 242.30 12.39C242.30 12.63 242.33 12.68 242.52 12.68C242.65 12.68 243.60 12.64 244.02 12.64C244.20 12.64 244.72 12.67 245.36 12.67C246.92 12.67 249.33 12.43 249.33 10.23C249.33 8.27 247.51 7.94 246.82 7.84C246.74 7.83 246.72 7.83 246.72 7.81C246.72 7.80 246.76 7.78 246.83 7.76C247.48 7.52 248.92 6.90 248.92 5.54C248.92 3.81 247.45 3.25 245.77 3.25C245.20 3.25 244.59 3.29 244.05 3.29C243.63 3.29 242.62 3.26 242.40 3.26C242.21 3.26 242.14 3.28 242.14 3.51ZM244.59 8.19C244.59 8.12 244.59 8.08 244.71 8.08L245.18 8.08C245.80 8.08 246.44 8.09 246.82 8.22C247.69 8.51 248.01 9.16 248.01 10.14C248.01 11.17 247.55 12.18 245.53 12.18L244.69 12.18C244.61 12.18 244.59 9.02 244.59 8.19ZM244.59 7.59L244.59 6.92C244.59 5.87 244.61 3.71 244.65 3.68C244.71 3.65 245.01 3.63 245.22 3.63C246.64 3.63 247.66 4.41 247.66 5.77C247.66 6.92 246.93 7.46 246.30 7.66C246.22 7.69 246.12 7.70 246.04 7.70C245.95 7.70 245.81 7.69 245.57 7.69L244.78 7.69C244.59 7.69 244.59 7.67 244.59 7.59ZM257.43 12.39C257.43 12.63 257.46 12.68 257.66 12.68C257.98 12.68 258.94 12.64 259.36 12.64C259.78 12.64 264.14 12.68 264.46 12.68C264.73 12.68 264.80 12.66 264.81 12.49C264.87 12.08 265.10 10.72 265.10 10.60C265.10 10.47 264.95 10.44 264.78 10.43C264.68 10.42 264.60 10.46 264.59 10.56L264.42 11.76C264.38 12.05 264.36 12.03 264.14 12.04C263.98 12.05 261.48 12.12 260.05 12.12C260.01 12.12 259.97 11.38 259.97 10.54L259.97 6.66C259.97 5.40 259.98 3.70 260.08 3.70L261.06 3.70C261.30 3.70 261.32 3.63 261.32 3.44C261.32 3.23 261.31 3.19 261.07 3.19C260.75 3.19 259.81 3.23 259.39 3.23C258.97 3.23 258.03 3.19 257.81 3.19C257.59 3.19 257.53 3.22 257.53 3.44C257.53 3.65 257.57 3.70 257.77 3.70L258.59 3.70C258.64 3.70 258.66 4.23 258.66 4.90L258.66 8.13C258.66 10.07 258.64 12.18 258.55 12.18L257.71 12.18C257.49 12.18 257.43 12.21 257.43 12.39ZM272.72 12.39C272.72 12.63 272.75 12.68 272.94 12.68C273.27 12.68 274.23 12.64 274.65 12.64C275.07 12.64 279.58 12.68 279.90 12.68C280.03 12.68 280.18 12.66 280.18 12.49C280.18 12.07 280.22 11.23 280.22 10.53C280.22 10.39 280.07 10.39 279.94 10.39C279.83 10.39 279.71 10.39 279.71 10.51C279.69 11.06 279.69 11.41 279.66 11.76C279.64 12.01 279.64 12.04 279.54 12.04C279.38 12.04 276.75 12.08 275.25 12.08C275.18 12.08 275.14 10.11 275.10 8.26C275.10 8.06 275.14 8.09 275.28 8.09L277.56 8.09C278.26 8.09 278.29 8.20 278.29 8.30L278.29 9.00C278.29 9.14 278.47 9.14 278.59 9.14C278.68 9.14 278.81 9.13 278.81 9.02C278.81 8.83 278.78 8.33 278.78 7.83C278.78 7.32 278.81 6.83 278.81 6.71C278.81 6.59 278.67 6.58 278.57 6.58C278.46 6.58 278.29 6.59 278.29 6.72L278.29 7.45C278.29 7.62 277.84 7.63 277.56 7.63L275.23 7.63C275.11 7.63 275.10 7.63 275.10 7.45C275.09 6.75 275.07 6.06 275.07 5.46C275.07 5.12 275.07 3.71 275.16 3.71C276.39 3.71 278.89 3.75 278.89 3.81C278.89 3.99 278.85 4.83 278.85 4.89C278.85 5.04 278.92 5.10 279.10 5.10C279.30 5.10 279.37 5.08 279.37 4.94C279.37 3.85 279.43 3.36 279.43 3.09C279.43 2.91 279.34 2.90 279.15 2.90C278.95 2.90 278.95 2.95 278.92 3.11C278.91 3.25 278.98 3.25 278.07 3.25C277.45 3.25 275.31 3.29 274.54 3.29C274.05 3.29 273.11 3.25 273.01 3.25C272.89 3.25 272.83 3.30 272.83 3.49C272.83 3.72 272.90 3.74 273.07 3.74L273.73 3.74C273.78 3.74 273.85 4.79 273.85 5.71C273.85 5.80 273.91 8.27 273.91 9.83L273.91 11.17C273.91 11.84 273.88 12.18 273.85 12.18L273 12.18C272.78 12.18 272.72 12.21 272.72 12.39ZM297.99 12.39C297.99 12.63 298.02 12.68 298.21 12.68C298.54 12.68 299.50 12.64 299.92 12.64C300.34 12.64 304.70 12.68 305.02 12.68C305.28 12.68 305.35 12.66 305.37 12.49C305.42 12.08 305.66 10.72 305.66 10.60C305.66 10.47 305.51 10.44 305.34 10.43C305.24 10.42 305.16 10.46 305.14 10.56L304.98 11.76C304.93 12.05 304.92 12.03 304.70 12.04C304.54 12.05 302.04 12.12 300.61 12.12C300.57 12.12 300.52 11.38 300.52 10.54L300.52 6.66C300.52 5.40 300.54 3.70 300.64 3.70L301.62 3.70C301.85 3.70 301.88 3.63 301.88 3.44C301.88 3.23 301.87 3.19 301.63 3.19C301.31 3.19 300.37 3.23 299.95 3.23C299.53 3.23 298.59 3.19 298.37 3.19C298.14 3.19 298.09 3.22 298.09 3.44C298.09 3.65 298.13 3.70 298.33 3.70L299.15 3.70C299.19 3.70 299.22 4.23 299.22 4.90L299.22 8.13C299.22 10.07 299.19 12.18 299.11 12.18L298.27 12.18C298.05 12.18 297.99 12.21 297.99 12.39ZM313.14 12.39C313.14 12.63 313.18 12.68 313.38 12.68C313.70 12.68 314.45 12.64 315.17 12.64C315.83 12.64 316.62 12.68 316.85 12.68C317.02 12.68 317.04 12.61 317.04 12.40C317.04 12.24 317.02 12.18 316.85 12.18L315.88 12.18C315.78 12.18 315.76 9.55 315.76 7.76L315.76 5.87C315.76 5.14 315.78 3.70 315.88 3.70L316.79 3.70C317.02 3.70 317.04 3.68 317.04 3.49C317.04 3.25 317.02 3.19 316.85 3.19C316.53 3.19 315.85 3.23 315.20 3.23C314.38 3.23 313.67 3.19 313.45 3.19C313.26 3.19 313.19 3.21 313.19 3.44C313.19 3.68 313.28 3.70 313.45 3.70L314.37 3.70C314.41 3.70 314.48 4.79 314.48 5.71L314.48 7.08C314.48 8.92 314.47 12.18 314.36 12.18L313.43 12.18C313.21 12.18 313.14 12.19 313.14 12.39ZM324.67 5.01C324.67 5.17 324.86 5.17 324.98 5.17C325.14 5.17 325.18 5.15 325.19 4.97L325.30 3.89C325.32 3.81 325.86 3.75 326.62 3.75L328.61 3.75C328.66 3.75 328.69 4.35 328.69 4.97C328.69 6.43 328.64 12.18 328.51 12.18L327.64 12.18C327.42 12.18 327.38 12.19 327.38 12.39C327.38 12.63 327.39 12.68 327.59 12.68C327.91 12.68 328.89 12.64 329.31 12.64C329.73 12.64 330.67 12.68 330.99 12.68C331.16 12.68 331.18 12.61 331.18 12.40C331.18 12.24 331.16 12.18 330.99 12.18L329.99 12.18C329.97 12.18 329.97 11.76 329.97 11.31C329.97 9.56 330.05 5.96 330.05 5.92C330.06 5.18 330.06 3.75 330.16 3.75L331.77 3.75C332.49 3.75 333.31 3.78 333.31 3.85C333.31 3.99 333.27 4.90 333.27 4.97C333.27 5.12 333.34 5.17 333.52 5.17C333.72 5.17 333.79 5.17 333.79 5.03C333.79 3.93 333.84 3.40 333.84 3.14C333.84 2.94 333.76 2.94 333.56 2.94C333.41 2.94 333.35 2.98 333.34 3.16C333.34 3.23 332.70 3.28 331.86 3.28L326.86 3.28C326.20 3.28 325.39 3.28 325.39 3.21L325.39 3.07C325.39 2.94 325.26 2.94 325.16 2.94C324.94 2.94 324.91 3.00 324.90 3.19C324.84 3.89 324.67 4.97 324.67 5.01ZM341.60 12.39C341.60 12.63 341.63 12.68 341.82 12.68C342.15 12.68 343.11 12.64 343.53 12.64C343.95 12.64 348.46 12.68 348.78 12.68C348.91 12.68 349.06 12.66 349.06 12.49C349.06 12.07 349.10 11.23 349.10 10.53C349.10 10.39 348.95 10.39 348.82 10.39C348.71 10.39 348.59 10.39 348.59 10.51C348.57 11.06 348.57 11.41 348.54 11.76C348.52 12.01 348.52 12.04 348.42 12.04C348.26 12.04 345.63 12.08 344.13 12.08C344.06 12.08 344.02 10.11 343.98 8.26C343.98 8.06 344.02 8.09 344.16 8.09L346.44 8.09C347.14 8.09 347.17 8.20 347.17 8.30L347.17 9.00C347.17 9.14 347.35 9.14 347.47 9.14C347.56 9.14 347.69 9.13 347.69 9.02C347.69 8.83 347.66 8.33 347.66 7.83C347.66 7.32 347.69 6.83 347.69 6.71C347.69 6.59 347.55 6.58 347.45 6.58C347.34 6.58 347.17 6.59 347.17 6.72L347.17 7.45C347.17 7.62 346.72 7.63 346.44 7.63L344.11 7.63C343.99 7.63 343.98 7.63 343.98 7.45C343.97 6.75 343.95 6.06 343.95 5.46C343.95 5.12 343.95 3.71 344.04 3.71C345.27 3.71 347.77 3.75 347.77 3.81C347.77 3.99 347.73 4.83 347.73 4.89C347.73 5.04 347.80 5.10 347.98 5.10C348.18 5.10 348.25 5.08 348.25 4.94C348.25 3.85 348.31 3.36 348.31 3.09C348.31 2.91 348.22 2.90 348.03 2.90C347.83 2.90 347.83 2.95 347.80 3.11C347.79 3.25 347.86 3.25 346.95 3.25C346.33 3.25 344.19 3.29 343.42 3.29C342.93 3.29 341.99 3.25 341.89 3.25C341.77 3.25 341.71 3.30 341.71 3.49C341.71 3.72 341.78 3.74 341.95 3.74L342.61 3.74C342.66 3.74 342.73 4.79 342.73 5.71C342.73 5.80 342.79 8.27 342.79 9.83L342.79 11.17C342.79 11.84 342.76 12.18 342.73 12.18L341.88 12.18C341.66 12.18 341.60 12.21 341.60 12.39ZM357.07 3.51C357.07 3.72 357.14 3.79 357.34 3.79L358.15 3.77C358.25 3.77 358.29 6.61 358.29 8.55L358.29 10.42C358.29 11.30 358.27 12.18 358.23 12.18L357.63 12.18C357.41 12.18 357.34 12.19 357.34 12.39C357.34 12.63 357.38 12.68 357.57 12.68C357.70 12.68 358.53 12.64 358.95 12.64C359.37 12.64 360.14 12.68 360.46 12.68C360.63 12.68 360.65 12.61 360.65 12.40C360.65 12.24 360.63 12.18 360.46 12.18L359.65 12.18C359.58 12.18 359.49 9.18 359.49 8.37C359.49 8.30 359.49 8.26 359.60 8.26C360.00 8.26 360.60 8.27 360.89 8.27C363.13 8.32 363.27 10.00 363.27 11.68L363.27 12.49C363.27 12.61 363.33 12.64 363.43 12.64C363.43 12.64 364.87 12.68 365.34 12.68C365.51 12.68 365.57 12.64 365.57 12.53C365.57 12.24 365.51 12.18 365.36 12.18L364.71 12.18C364.62 12.18 364.59 12.14 364.56 11.31C364.48 8.99 363.10 8.34 362.19 8.05C362.05 8.01 362.08 8.01 362.19 7.95C362.78 7.69 364.10 6.94 364.10 5.63C364.10 3.63 362.40 3.21 361.00 3.21C360.68 3.21 359.39 3.29 358.97 3.29C358.55 3.29 357.57 3.26 357.35 3.26C357.17 3.26 357.07 3.28 357.07 3.51ZM359.49 7.80L359.49 4.40C359.49 4.05 359.52 3.68 359.56 3.68C359.77 3.65 360.05 3.65 360.28 3.65C361.58 3.65 362.82 4.47 362.82 5.82C362.82 6.99 362.28 7.57 361.62 7.88C361.58 7.90 361.54 7.90 361.47 7.90C360.99 7.88 360.28 7.88 359.67 7.87C359.51 7.87 359.49 7.85 359.49 7.80ZM372.90 12.39C372.90 12.63 372.90 12.68 373.10 12.68C373.27 12.68 373.59 12.64 374.16 12.64C374.78 12.64 375.33 12.68 375.48 12.68C375.65 12.68 375.65 12.61 375.65 12.40C375.65 12.24 375.65 12.18 375.48 12.18L374.40 12.18C374.40 12.18 374.39 12.18 374.39 12.17C374.40 11.87 375.17 9.90 375.52 9.02C375.59 8.83 375.61 8.79 375.82 8.79L378.64 8.79C378.78 8.79 378.78 8.81 378.85 9.03C379.12 9.77 379.83 11.89 379.83 12.17C379.83 12.18 379.82 12.18 379.82 12.18L379.05 12.18C378.83 12.18 378.81 12.19 378.81 12.39C378.81 12.63 378.83 12.68 378.99 12.68C379.32 12.68 380.18 12.64 380.60 12.64C381.02 12.64 381.70 12.68 381.91 12.68C382.05 12.68 382.06 12.61 382.06 12.40C382.06 12.24 382.05 12.18 381.91 12.18L381.42 12.18C381.32 12.18 380.30 9.34 379.74 7.78L378.06 3.07C378.04 3.00 377.97 2.94 377.89 2.94C377.76 2.94 377.66 3.16 377.58 3.35C377.43 3.71 377.19 3.84 377.08 4.13L375.59 7.57C375.41 8.01 373.70 12.18 373.58 12.18L373.16 12.18C372.93 12.18 372.90 12.19 372.90 12.39ZM375.80 8.33C375.80 8.30 375.83 8.23 375.87 8.13L377.24 4.77C377.29 4.66 377.31 4.61 377.34 4.61C377.36 4.61 377.37 4.63 377.41 4.77L378.57 8.18C378.60 8.25 378.62 8.29 378.62 8.32C378.62 8.36 378.59 8.37 378.49 8.37L375.98 8.37C375.80 8.37 375.80 8.34 375.80 8.33ZM388.15 5.01C388.15 5.17 388.33 5.17 388.46 5.17C388.61 5.17 388.65 5.15 388.67 4.97L388.78 3.89C388.79 3.81 389.34 3.75 390.10 3.75L392.08 3.75C392.14 3.75 392.17 4.35 392.17 4.97C392.17 6.43 392.11 12.18 391.99 12.18L391.12 12.18C390.89 12.18 390.85 12.19 390.85 12.39C390.85 12.63 390.87 12.68 391.06 12.68C391.38 12.68 392.36 12.64 392.78 12.64C393.20 12.64 394.14 12.68 394.46 12.68C394.63 12.68 394.66 12.61 394.66 12.40C394.66 12.24 394.63 12.18 394.46 12.18L393.47 12.18C393.44 12.18 393.44 11.76 393.44 11.31C393.44 9.56 393.53 5.96 393.53 5.92C393.54 5.18 393.54 3.75 393.64 3.75L395.25 3.75C395.96 3.75 396.79 3.78 396.79 3.85C396.79 3.99 396.75 4.90 396.75 4.97C396.75 5.12 396.82 5.17 397.00 5.17C397.19 5.17 397.26 5.17 397.26 5.03C397.26 3.93 397.32 3.40 397.32 3.14C397.32 2.94 397.24 2.94 397.04 2.94C396.89 2.94 396.83 2.98 396.82 3.16C396.82 3.23 396.17 3.28 395.33 3.28L390.33 3.28C389.68 3.28 388.86 3.28 388.86 3.21L388.86 3.07C388.86 2.94 388.74 2.94 388.64 2.94C388.42 2.94 388.39 3.00 388.37 3.19C388.32 3.89 388.15 4.97 388.15 5.01ZM405.08 3.51C405.08 3.75 405.16 3.77 405.33 3.77L405.86 3.77C405.92 3.77 405.92 4.12 405.92 4.55C405.92 5.66 405.90 8.96 405.90 9.42C405.90 11.13 406.15 12.80 409.01 12.80C410.09 12.80 411.25 12.38 411.91 12.00C412.16 11.86 412.45 11.72 412.54 11.72C412.80 11.72 413.07 12.74 413.41 12.74C413.73 12.74 413.74 12.35 413.74 12.25C413.74 11.96 413.80 10.08 413.84 8.16C413.90 6.12 413.88 3.77 413.99 3.77L414.32 3.77C414.54 3.77 414.61 3.75 414.61 3.56C414.61 3.32 414.57 3.26 414.37 3.26C414.23 3.26 413.70 3.30 413.28 3.30C412.86 3.30 412.06 3.26 411.84 3.26C411.66 3.26 411.56 3.28 411.56 3.51C411.56 3.75 411.67 3.77 411.84 3.77L412.54 3.77C412.61 3.77 412.62 4.30 412.62 4.87L412.62 9.14C412.62 11.19 412.62 11.12 412.29 11.34C411.89 11.61 411.08 12.08 409.91 12.08C407.93 12.08 407.13 11.17 407.13 9.41C407.13 8.82 407.20 3.77 407.32 3.77L408.23 3.77C408.45 3.77 408.49 3.75 408.49 3.56C408.49 3.32 408.48 3.26 408.28 3.26C407.96 3.26 407.08 3.30 406.66 3.30C406.24 3.30 405.55 3.26 405.33 3.26C405.15 3.26 405.08 3.28 405.08 3.51ZM422.65 3.51C422.65 3.72 422.72 3.79 422.91 3.79L423.72 3.77C423.82 3.77 423.86 6.61 423.86 8.55L423.86 10.42C423.86 11.30 423.85 12.18 423.81 12.18L423.21 12.18C422.98 12.18 422.91 12.19 422.91 12.39C422.91 12.63 422.95 12.68 423.15 12.68C423.28 12.68 424.10 12.64 424.52 12.64C424.94 12.64 425.71 12.68 426.03 12.68C426.20 12.68 426.23 12.61 426.23 12.40C426.23 12.24 426.20 12.18 426.03 12.18L425.22 12.18C425.15 12.18 425.07 9.18 425.07 8.37C425.07 8.30 425.07 8.26 425.18 8.26C425.57 8.26 426.17 8.27 426.47 8.27C428.71 8.32 428.85 10.00 428.85 11.68L428.85 12.49C428.85 12.61 428.90 12.64 429.00 12.64C429.00 12.64 430.44 12.68 430.92 12.68C431.09 12.68 431.14 12.64 431.14 12.53C431.14 12.24 431.09 12.18 430.93 12.18L430.29 12.18C430.19 12.18 430.16 12.14 430.14 11.31C430.05 8.99 428.68 8.34 427.77 8.05C427.63 8.01 427.66 8.01 427.77 7.95C428.36 7.69 429.67 6.94 429.67 5.63C429.67 3.63 427.98 3.21 426.58 3.21C426.26 3.21 424.97 3.29 424.55 3.29C424.13 3.29 423.15 3.26 422.93 3.26C422.74 3.26 422.65 3.28 422.65 3.51ZM425.07 7.80L425.07 4.40C425.07 4.05 425.10 3.68 425.14 3.68C425.35 3.65 425.63 3.65 425.85 3.65C427.15 3.65 428.40 4.47 428.40 5.82C428.40 6.99 427.85 7.57 427.20 7.88C427.15 7.90 427.11 7.90 427.04 7.90C426.57 7.88 425.85 7.88 425.25 7.87C425.08 7.87 425.07 7.85 425.07 7.80ZM438.62 12.39C438.62 12.63 438.65 12.68 438.84 12.68C439.17 12.68 440.13 12.64 440.55 12.64C440.97 12.64 445.48 12.68 445.80 12.68C445.93 12.68 446.08 12.66 446.08 12.49C446.08 12.07 446.12 11.23 446.12 10.53C446.12 10.39 445.97 10.39 445.84 10.39C445.73 10.39 445.61 10.39 445.61 10.51C445.59 11.06 445.59 11.41 445.56 11.76C445.54 12.01 445.54 12.04 445.44 12.04C445.28 12.04 442.65 12.08 441.15 12.08C441.08 12.08 441.04 10.11 441.00 8.26C441.00 8.06 441.04 8.09 441.18 8.09L443.46 8.09C444.16 8.09 444.19 8.20 444.19 8.30L444.19 9.00C444.19 9.14 444.37 9.14 444.49 9.14C444.58 9.14 444.71 9.13 444.71 9.02C444.71 8.83 444.68 8.33 444.68 7.83C444.68 7.32 444.71 6.83 444.71 6.71C444.71 6.59 444.57 6.58 444.47 6.58C444.36 6.58 444.19 6.59 444.19 6.72L444.19 7.45C444.19 7.62 443.74 7.63 443.46 7.63L441.13 7.63C441.01 7.63 441.00 7.63 441.00 7.45C440.99 6.75 440.97 6.06 440.97 5.46C440.97 5.12 440.97 3.71 441.06 3.71C442.29 3.71 444.79 3.75 444.79 3.81C444.79 3.99 444.75 4.83 444.75 4.89C444.75 5.04 444.82 5.10 445.00 5.10C445.20 5.10 445.27 5.08 445.27 4.94C445.27 3.85 445.33 3.36 445.33 3.09C445.33 2.91 445.24 2.90 445.05 2.90C444.85 2.90 444.85 2.95 444.82 3.11C444.81 3.25 444.88 3.25 443.97 3.25C443.35 3.25 441.21 3.29 440.44 3.29C439.95 3.29 439.01 3.25 438.91 3.25C438.79 3.25 438.73 3.30 438.73 3.49C438.73 3.72 438.80 3.74 438.97 3.74L439.63 3.74C439.68 3.74 439.75 4.79 439.75 5.71C439.75 5.80 439.81 8.27 439.81 9.83L439.81 11.17C439.81 11.84 439.78 12.18 439.75 12.18L438.90 12.18C438.68 12.18 438.62 12.21 438.62 12.39ZM463.89 3.51C463.89 3.72 463.96 3.79 464.16 3.79L464.97 3.77C465.07 3.77 465.11 6.61 465.11 8.55L465.11 10.42C465.11 11.30 465.09 12.18 465.05 12.18L464.45 12.18C464.23 12.18 464.16 12.19 464.16 12.39C464.16 12.63 464.20 12.68 464.39 12.68C464.52 12.68 465.35 12.64 465.77 12.64C466.19 12.64 466.96 12.68 467.28 12.68C467.45 12.68 467.47 12.61 467.47 12.40C467.47 12.24 467.45 12.18 467.28 12.18L466.47 12.18C466.40 12.18 466.31 9.18 466.31 8.37C466.31 8.30 466.31 8.26 466.42 8.26C466.82 8.26 467.42 8.27 467.71 8.27C469.95 8.32 470.09 10.00 470.09 11.68L470.09 12.49C470.09 12.61 470.15 12.64 470.25 12.64C470.25 12.64 471.69 12.68 472.16 12.68C472.33 12.68 472.39 12.64 472.39 12.53C472.39 12.24 472.33 12.18 472.18 12.18L471.53 12.18C471.44 12.18 471.41 12.14 471.38 11.31C471.30 8.99 469.92 8.34 469.01 8.05C468.87 8.01 468.90 8.01 469.01 7.95C469.60 7.69 470.92 6.94 470.92 5.63C470.92 3.63 469.22 3.21 467.82 3.21C467.50 3.21 466.21 3.29 465.79 3.29C465.37 3.29 464.39 3.26 464.17 3.26C463.99 3.26 463.89 3.28 463.89 3.51ZM466.31 7.80L466.31 4.40C466.31 4.05 466.34 3.68 466.38 3.68C466.59 3.65 466.87 3.65 467.10 3.65C468.40 3.65 469.64 4.47 469.64 5.82C469.64 6.99 469.10 7.57 468.44 7.88C468.40 7.90 468.36 7.90 468.29 7.90C467.81 7.88 467.10 7.88 466.49 7.87C466.33 7.87 466.31 7.85 466.31 7.80ZM479.86 12.39C479.86 12.63 479.89 12.68 480.09 12.68C480.41 12.68 481.38 12.64 481.80 12.64C482.22 12.64 486.72 12.68 487.05 12.68C487.17 12.68 487.33 12.66 487.33 12.49C487.33 12.07 487.37 11.23 487.37 10.53C487.37 10.39 487.21 10.39 487.09 10.39C486.98 10.39 486.85 10.39 486.85 10.51C486.84 11.06 486.84 11.41 486.81 11.76C486.78 12.01 486.78 12.04 486.68 12.04C486.53 12.04 483.90 12.08 482.40 12.08C482.33 12.08 482.29 10.11 482.24 8.26C482.24 8.06 482.29 8.09 482.43 8.09L484.71 8.09C485.41 8.09 485.44 8.20 485.44 8.30L485.44 9.00C485.44 9.14 485.62 9.14 485.73 9.14C485.83 9.14 485.95 9.13 485.95 9.02C485.95 8.83 485.93 8.33 485.93 7.83C485.93 7.32 485.95 6.83 485.95 6.71C485.95 6.59 485.81 6.58 485.72 6.58C485.60 6.58 485.44 6.59 485.44 6.72L485.44 7.45C485.44 7.62 484.99 7.63 484.71 7.63L482.37 7.63C482.26 7.63 482.24 7.63 482.24 7.45C482.23 6.75 482.22 6.06 482.22 5.46C482.22 5.12 482.22 3.71 482.30 3.71C483.53 3.71 486.04 3.75 486.04 3.81C486.04 3.99 486.00 4.83 486.00 4.89C486.00 5.04 486.07 5.10 486.25 5.10C486.44 5.10 486.51 5.08 486.51 4.94C486.51 3.85 486.57 3.36 486.57 3.09C486.57 2.91 486.49 2.90 486.29 2.90C486.09 2.90 486.09 2.95 486.07 3.11C486.05 3.25 486.12 3.25 485.21 3.25C484.60 3.25 482.45 3.29 481.68 3.29C481.19 3.29 480.26 3.25 480.16 3.25C480.03 3.25 479.98 3.30 479.98 3.49C479.98 3.72 480.05 3.74 480.21 3.74L480.87 3.74C480.93 3.74 481.00 4.79 481.00 5.71C481.00 5.80 481.05 8.27 481.05 9.83L481.05 11.17C481.05 11.84 481.03 12.18 481.00 12.18L480.14 12.18C479.92 12.18 479.86 12.21 479.86 12.39ZM494.91 3.51C494.91 3.75 495.01 3.77 495.18 3.77L495.61 3.77C495.70 3.77 498.48 10.99 498.53 11.07C499.02 12.18 499.11 12.99 499.32 12.99C499.59 12.99 499.65 12.67 499.93 12.26C500.08 12.04 500.16 12.01 500.32 11.66L503.55 4.06C503.66 3.81 503.65 3.77 504.01 3.77C504.24 3.77 504.31 3.75 504.31 3.56C504.31 3.32 504.27 3.26 504.07 3.26C503.93 3.26 503.40 3.30 502.98 3.30C502.56 3.30 501.73 3.26 501.51 3.26C501.31 3.26 501.26 3.29 501.26 3.51C501.26 3.75 501.38 3.77 501.55 3.77L502.54 3.77C502.61 3.77 502.63 3.81 502.63 3.95C502.63 4.63 500.95 8.72 500.22 10.63C500.08 10.99 500.00 11.17 499.95 11.17C499.91 11.17 499.81 10.98 499.67 10.60C499.10 9.10 497.97 6.01 497.45 4.49C497.36 4.27 497.28 3.93 497.28 3.79L497.28 3.77L498.26 3.77C498.48 3.77 498.55 3.75 498.55 3.56C498.55 3.32 498.51 3.26 498.32 3.26C497.99 3.26 496.92 3.30 496.50 3.30C496.08 3.30 495.36 3.26 495.18 3.26C495.00 3.26 494.91 3.28 494.91 3.51ZM511.78 12.39C511.78 12.63 511.83 12.68 512.02 12.68C512.34 12.68 513.10 12.64 513.81 12.64C514.47 12.64 515.27 12.68 515.49 12.68C515.66 12.68 515.69 12.61 515.69 12.40C515.69 12.24 515.66 12.18 515.49 12.18L514.53 12.18C514.43 12.18 514.40 9.55 514.40 7.76L514.40 5.87C514.40 5.14 514.43 3.70 514.53 3.70L515.44 3.70C515.66 3.70 515.69 3.68 515.69 3.49C515.69 3.25 515.66 3.19 515.49 3.19C515.17 3.19 514.50 3.23 513.84 3.23C513.03 3.23 512.32 3.19 512.09 3.19C511.91 3.19 511.84 3.21 511.84 3.44C511.84 3.68 511.92 3.70 512.09 3.70L513.02 3.70C513.06 3.70 513.13 4.79 513.13 5.71L513.13 7.08C513.13 8.92 513.11 12.18 513.00 12.18L512.08 12.18C511.85 12.18 511.78 12.19 511.78 12.39ZM523.59 12.39C523.59 12.63 523.61 12.68 523.81 12.68C524.13 12.68 525.10 12.64 525.52 12.64C525.94 12.64 530.45 12.68 530.77 12.68C530.89 12.68 531.05 12.66 531.05 12.49C531.05 12.07 531.09 11.23 531.09 10.53C531.09 10.39 530.94 10.39 530.81 10.39C530.70 10.39 530.57 10.39 530.57 10.51C530.56 11.06 530.56 11.41 530.53 11.76C530.50 12.01 530.50 12.04 530.40 12.04C530.25 12.04 527.62 12.08 526.12 12.08C526.05 12.08 526.01 10.11 525.97 8.26C525.97 8.06 526.01 8.09 526.15 8.09L528.43 8.09C529.13 8.09 529.16 8.20 529.16 8.30L529.16 9.00C529.16 9.14 529.34 9.14 529.45 9.14C529.55 9.14 529.68 9.13 529.68 9.02C529.68 8.83 529.65 8.33 529.65 7.83C529.65 7.32 529.68 6.83 529.68 6.71C529.68 6.59 529.54 6.58 529.44 6.58C529.33 6.58 529.16 6.59 529.16 6.72L529.16 7.45C529.16 7.62 528.71 7.63 528.43 7.63L526.09 7.63C525.98 7.63 525.97 7.63 525.97 7.45C525.95 6.75 525.94 6.06 525.94 5.46C525.94 5.12 525.94 3.71 526.02 3.71C527.25 3.71 529.76 3.75 529.76 3.81C529.76 3.99 529.72 4.83 529.72 4.89C529.72 5.04 529.79 5.10 529.97 5.10C530.17 5.10 530.24 5.08 530.24 4.94C530.24 3.85 530.29 3.36 530.29 3.09C530.29 2.91 530.21 2.90 530.01 2.90C529.82 2.90 529.82 2.95 529.79 3.11C529.77 3.25 529.84 3.25 528.93 3.25C528.32 3.25 526.18 3.29 525.41 3.29C524.92 3.29 523.98 3.25 523.88 3.25C523.75 3.25 523.70 3.30 523.70 3.49C523.70 3.72 523.77 3.74 523.94 3.74L524.59 3.74C524.65 3.74 524.72 4.79 524.72 5.71C524.72 5.80 524.78 8.27 524.78 9.83L524.78 11.17C524.78 11.84 524.75 12.18 524.72 12.18L523.87 12.18C523.64 12.18 523.59 12.21 523.59 12.39ZM538.64 3.51C538.64 3.75 538.75 3.77 538.92 3.77L539.42 3.77C539.50 3.77 541.65 10.99 541.67 11.07C542.02 12.14 542.14 12.99 542.44 12.99C542.67 12.99 542.77 12.67 543.05 12.26C543.20 12.05 543.30 12.01 543.44 11.66L545.43 6.45C545.50 6.29 545.52 6.20 545.55 6.20C545.58 6.20 545.61 6.29 545.65 6.45C546.25 8.51 546.92 11.03 546.94 11.07C547.29 12.14 547.40 12.99 547.71 12.99C547.93 12.99 548.03 12.67 548.31 12.26C548.46 12.05 548.56 12.01 548.70 11.66L551.80 4.06C551.89 3.81 551.89 3.77 552.26 3.77C552.50 3.77 552.55 3.71 552.55 3.53C552.55 3.32 552.51 3.26 552.31 3.26C552.17 3.26 551.87 3.30 551.36 3.30C550.62 3.30 550.12 3.26 549.92 3.26C549.74 3.26 549.64 3.28 549.64 3.51C549.64 3.75 549.75 3.77 549.92 3.77L550.83 3.77C550.90 3.77 550.91 3.81 550.91 3.95C550.91 4.63 549.32 8.72 548.60 10.63C548.46 10.99 548.39 11.17 548.35 11.17C548.30 11.17 548.24 10.99 548.11 10.60C548.03 10.30 547.11 7.18 546.57 5.22C546.53 5.05 546.32 4.17 546.32 3.85C546.32 3.81 546.32 3.79 546.34 3.77L547.22 3.77C547.40 3.77 547.50 3.75 547.50 3.56C547.50 3.32 547.46 3.26 547.26 3.26C546.94 3.26 546.00 3.30 545.58 3.30C545.16 3.30 544.25 3.26 544.03 3.26C543.84 3.26 543.75 3.28 543.75 3.51C543.75 3.75 543.86 3.77 544.03 3.77L544.82 3.77C544.87 3.77 545.05 4.27 545.20 4.83C545.26 5.05 545.30 5.15 545.30 5.25C545.30 5.31 545.30 5.38 545.26 5.49L543.26 10.60C543.16 10.82 543.13 10.95 543.09 10.95C543.05 10.95 543.02 10.84 542.93 10.60C542.85 10.32 541.84 7.27 541.24 5.22C541.20 5.08 540.88 3.96 540.86 3.85C540.88 3.77 540.92 3.77 540.96 3.77L541.66 3.77C541.88 3.77 541.95 3.75 541.95 3.56C541.95 3.32 541.91 3.26 541.72 3.26C541.39 3.26 540.68 3.30 540.26 3.30C539.84 3.30 539.14 3.26 538.92 3.26C538.73 3.26 538.64 3.28 538.64 3.51ZM560.17 12.39C560.17 12.63 560.20 12.68 560.39 12.68C560.71 12.68 561.68 12.64 562.10 12.64C562.52 12.64 567.03 12.68 567.35 12.68C567.48 12.68 567.63 12.66 567.63 12.49C567.63 12.07 567.67 11.23 567.67 10.53C567.67 10.39 567.52 10.39 567.39 10.39C567.28 10.39 567.15 10.39 567.15 10.51C567.14 11.06 567.14 11.41 567.11 11.76C567.08 12.01 567.08 12.04 566.99 12.04C566.83 12.04 564.20 12.08 562.70 12.08C562.63 12.08 562.59 10.11 562.55 8.26C562.55 8.06 562.59 8.09 562.73 8.09L565.01 8.09C565.71 8.09 565.74 8.20 565.74 8.30L565.74 9.00C565.74 9.14 565.92 9.14 566.03 9.14C566.13 9.14 566.26 9.13 566.26 9.02C566.26 8.83 566.23 8.33 566.23 7.83C566.23 7.32 566.26 6.83 566.26 6.71C566.26 6.59 566.12 6.58 566.02 6.58C565.91 6.58 565.74 6.59 565.74 6.72L565.74 7.45C565.74 7.62 565.29 7.63 565.01 7.63L562.67 7.63C562.56 7.63 562.55 7.63 562.55 7.45C562.53 6.75 562.52 6.06 562.52 5.46C562.52 5.12 562.52 3.71 562.60 3.71C563.84 3.71 566.34 3.75 566.34 3.81C566.34 3.99 566.30 4.83 566.30 4.89C566.30 5.04 566.37 5.10 566.55 5.10C566.75 5.10 566.82 5.08 566.82 4.94C566.82 3.85 566.87 3.36 566.87 3.09C566.87 2.91 566.79 2.90 566.59 2.90C566.40 2.90 566.40 2.95 566.37 3.11C566.36 3.25 566.43 3.25 565.52 3.25C564.90 3.25 562.76 3.29 561.99 3.29C561.50 3.29 560.56 3.25 560.46 3.25C560.34 3.25 560.28 3.30 560.28 3.49C560.28 3.72 560.35 3.74 560.52 3.74L561.18 3.74C561.23 3.74 561.30 4.79 561.30 5.71C561.30 5.80 561.36 8.27 561.36 9.83L561.36 11.17C561.36 11.84 561.33 12.18 561.30 12.18L560.45 12.18C560.22 12.18 560.17 12.21 560.17 12.39ZM575.64 3.51C575.64 3.72 575.71 3.79 575.90 3.79L576.72 3.77C576.81 3.77 576.86 6.61 576.86 8.55L576.86 10.42C576.86 11.30 576.84 12.18 576.80 12.18L576.20 12.18C575.97 12.18 575.90 12.19 575.90 12.39C575.90 12.63 575.95 12.68 576.14 12.68C576.27 12.68 577.09 12.64 577.51 12.64C577.93 12.64 578.70 12.68 579.03 12.68C579.19 12.68 579.22 12.61 579.22 12.40C579.22 12.24 579.19 12.18 579.03 12.18L578.21 12.18C578.14 12.18 578.06 9.18 578.06 8.37C578.06 8.30 578.06 8.26 578.17 8.26C578.56 8.26 579.17 8.27 579.46 8.27C581.70 8.32 581.84 10.00 581.84 11.68L581.84 12.49C581.84 12.61 581.90 12.64 581.99 12.64C581.99 12.64 583.44 12.68 583.91 12.68C584.08 12.68 584.14 12.64 584.14 12.53C584.14 12.24 584.08 12.18 583.93 12.18L583.28 12.18C583.18 12.18 583.16 12.14 583.13 11.31C583.04 8.99 581.67 8.34 580.76 8.05C580.62 8.01 580.65 8.01 580.76 7.95C581.35 7.69 582.67 6.94 582.67 5.63C582.67 3.63 580.97 3.21 579.57 3.21C579.25 3.21 577.96 3.29 577.54 3.29C577.12 3.29 576.14 3.26 575.92 3.26C575.74 3.26 575.64 3.28 575.64 3.51ZM578.06 7.80L578.06 4.40C578.06 4.05 578.09 3.68 578.13 3.68C578.34 3.65 578.62 3.65 578.84 3.65C580.15 3.65 581.39 4.47 581.39 5.82C581.39 6.99 580.85 7.57 580.19 7.88C580.15 7.90 580.10 7.90 580.03 7.90C579.56 7.88 578.84 7.88 578.24 7.87C578.07 7.87 578.06 7.85 578.06 7.80Z"></path></g></svg>