<svg data-v-fde0c5aa="" xmlns="http://www.w3.org/2000/svg" viewBox="0 0 300 300" class="font"><!----><defs data-v-fde0c5aa=""><!----></defs><rect data-v-fde0c5aa="" fill="#EBE9F5" x="0" y="0" width="300px" height="300px" class="logo-background-square"></rect><defs data-v-fde0c5aa=""><linearGradient data-v-fde0c5aa="" gradientTransform="rotate(25)" id="8b055972-7509-4264-88ba-0fb5b74e4965" x1="0%" y1="0%" x2="100%" y2="0%"><stop data-v-fde0c5aa="" offset="0%" stop-color="#6566CE" stop-opacity="1"></stop><stop data-v-fde0c5aa="" offset="100%" stop-color="#DBC1D0" stop-opacity="1"></stop></linearGradient></defs><g data-v-fde0c5aa="" id="2dcbb915-8073-48db-9d2d-7b73f99d4583" fill="url(#8b055972-7509-4264-88ba-0fb5b74e4965)" transform="matrix(2.4138522148132324,0,0,2.4138522148132324,37.32213269329677,129.4351105777473)"><path d="M1.11 13.78L2.28 13.78L2.28 9.42L6.12 9.42L6.12 13.78L7.29 13.78L7.29 4.54L6.12 4.54L6.12 8.41L2.28 8.41L2.28 4.54L1.11 4.54ZM12.60 13.96C14.39 13.96 15.96 12.59 15.96 10.22C15.96 7.83 14.39 6.47 12.60 6.47C10.81 6.47 9.24 7.83 9.24 10.22C9.24 12.59 10.81 13.96 12.60 13.96ZM12.60 13.01C11.30 13.01 10.43 11.89 10.43 10.22C10.43 8.55 11.30 7.42 12.60 7.42C13.90 7.42 14.77 8.55 14.77 10.22C14.77 11.89 13.90 13.01 12.60 13.01ZM22.48 13.96C23.23 13.96 23.70 13.76 24.32 13.52L24.02 12.66C23.52 12.89 23.13 13.01 22.74 13.01C21.92 13.01 21.41 12.54 21.41 11.49L21.41 3.60L17.93 3.60L17.93 4.54L20.26 4.54L20.26 11.41C20.26 13.09 21.04 13.96 22.48 13.96ZM29.68 5.04C30.23 5.04 30.66 4.65 30.66 4.07C30.66 3.49 30.23 3.08 29.68 3.08C29.13 3.08 28.70 3.49 28.70 4.07C28.70 4.65 29.13 5.04 29.68 5.04ZM26.60 13.78L33.04 13.78L33.04 12.82L30.39 12.82L30.39 6.64L26.60 6.64L26.60 7.57L29.25 7.57L29.25 12.82L26.60 12.82ZM34.66 13.78L35.71 13.78L35.71 8.55C35.71 7.80 35.62 6.47 35.56 5.73L35.60 5.73L36.27 7.70L37.76 11.27L38.40 11.27L39.87 7.70L40.52 5.73L40.57 5.73C40.52 6.47 40.43 7.80 40.43 8.55L40.43 13.78L41.50 13.78L41.50 4.54L40.12 4.54L38.63 8.47L38.12 9.97L38.07 9.97L37.53 8.47L36.04 4.54L34.66 4.54ZM46.76 13.96C48.55 13.96 50.12 12.59 50.12 10.22C50.12 7.83 48.55 6.47 46.76 6.47C44.97 6.47 43.40 7.83 43.40 10.22C43.40 12.59 44.97 13.96 46.76 13.96ZM46.76 13.01C45.46 13.01 44.59 11.89 44.59 10.22C44.59 8.55 45.46 7.42 46.76 7.42C48.06 7.42 48.93 8.55 48.93 10.22C48.93 11.89 48.06 13.01 46.76 13.01ZM52.84 13.78L58.53 13.78L58.53 12.78L53.98 12.78L53.98 4.54L52.84 4.54ZM63.84 5.04C64.39 5.04 64.82 4.65 64.82 4.07C64.82 3.49 64.39 3.08 63.84 3.08C63.29 3.08 62.86 3.49 62.86 4.07C62.86 4.65 63.29 5.04 63.84 5.04ZM60.76 13.78L67.20 13.78L67.20 12.82L64.55 12.82L64.55 6.64L60.76 6.64L60.76 7.57L63.41 7.57L63.41 12.82L60.76 12.82ZM69.16 13.78L70.32 13.78L70.32 9.87L71.96 9.87L74.17 13.78L75.50 13.78L73.16 9.74C74.41 9.42 75.22 8.57 75.22 7.13C75.22 5.21 73.88 4.54 72.02 4.54L69.16 4.54ZM70.32 8.92L70.32 5.47L71.85 5.47C73.28 5.47 74.06 5.91 74.06 7.13C74.06 8.33 73.28 8.92 71.85 8.92ZM80.78 13.96C81.87 13.96 82.73 13.57 83.40 13.12L82.99 12.35C82.36 12.77 81.72 13.02 80.92 13.02C79.44 13.02 78.37 12.03 78.32 10.49L83.64 10.49C83.66 10.30 83.68 10.05 83.68 9.81C83.68 7.80 82.53 6.47 80.58 6.47C78.82 6.47 77.13 7.90 77.13 10.22C77.13 12.56 78.76 13.96 80.78 13.96ZM78.30 9.65C78.48 8.22 79.49 7.38 80.60 7.38C81.86 7.38 82.61 8.19 82.61 9.65ZM88.14 13.78L89.43 13.78L92.25 6.64L91.14 6.64L89.57 10.74C89.29 11.45 89.07 12.17 88.83 12.82L88.77 12.82C88.54 12.17 88.28 11.45 88.00 10.74L86.44 6.64L85.27 6.64Z"></path></g><!----><!----></svg>